<svg width="21" height="20" viewBox="0 0 21 20" fill="none" xmlns="http://www.w3.org/2000/svg">
<path d="M19.5 5.89192V14.1154C19.5 14.8804 19.2037 15.6141 18.6762 16.1551C18.1488 16.6961 17.4334 17 16.6875 17H4.3125C3.56658 17 2.85121 16.6961 2.32376 16.1551C1.79632 15.6141 1.5 14.8804 1.5 14.1154V5.89192L10.2143 11.1512C10.3008 11.2035 10.3995 11.2311 10.5 11.2311C10.6005 11.2311 10.6992 11.2035 10.7857 11.1512L19.5 5.89192ZM16.6875 2C17.3795 1.99989 18.0473 2.26147 18.5631 2.7347C19.0789 3.20793 19.4064 3.85959 19.4831 4.565L10.5 9.98462L1.51688 4.565C1.59355 3.85959 1.92111 3.20793 2.43689 2.7347C2.95267 2.26147 3.62046 1.99989 4.3125 2H16.6875Z" fill="#FF574D"/>
</svg>
