<svg width="40" height="40" viewBox="0 0 40 40" fill="none" xmlns="http://www.w3.org/2000/svg">
<mask id="mask0_282_437" style="mask-type:alpha" maskUnits="userSpaceOnUse" x="4" y="4" width="32" height="32">
<path d="M24.9113 4H15.0887C6.12493 4 4 6.12493 4 15.0887V24.9113C4 33.8751 6.12493 36 15.0887 36H24.9113C33.8751 36 36 33.8751 36 24.9113V15.0887C36 6.12493 33.8541 4 24.9113 4Z" fill="#2B8E53"/>
</mask>
<g mask="url(#mask0_282_437)">
<path d="M9.84301 4C6.60624 4 4 6.60624 4 9.84301V30.157C4 33.3938 6.60624 36 9.84301 36H20.853V23.49H17.545V18.986H20.853V15.138C20.853 12.1148 22.8076 9.33901 27.31 9.33901C29.133 9.33901 30.481 9.51402 30.481 9.51402L30.375 13.72C30.375 13.72 29.0002 13.707 27.5 13.707C25.8764 13.707 25.616 14.4551 25.616 15.6971V18.986H30.504L30.291 23.49H25.616V36.0001H30.157C33.3938 36.0001 36 33.3938 36 30.1571V9.84304C36 6.60627 33.3938 4.00003 30.157 4.00003L9.84301 4Z" fill="#2B8E53"/>
</g>
</svg>
