<svg width="40" height="40" viewBox="0 0 40 40" fill="none" xmlns="http://www.w3.org/2000/svg">
<path d="M19.9957 14.6644C17.0578 14.6644 14.6602 17.062 14.6602 20C14.6602 22.938 17.0578 25.3356 19.9957 25.3356C22.9336 25.3356 25.3312 22.938 25.3312 20C25.3312 17.062 22.9336 14.6644 19.9957 14.6644ZM35.9982 20C35.9982 17.7905 36.0182 15.601 35.8941 13.3955C35.7701 10.8338 35.1857 8.56027 33.3124 6.68701C31.4352 4.80974 29.1657 4.22934 26.604 4.10526C24.3946 3.98118 22.2051 4.00119 19.9997 4.00119C17.7902 4.00119 15.6008 3.98118 13.3954 4.10526C10.8337 4.22934 8.56019 4.81374 6.68695 6.68701C4.80972 8.56427 4.22934 10.8338 4.10526 13.3955C3.98118 15.605 4.00119 17.7945 4.00119 20C4.00119 22.2055 3.98118 24.399 4.10526 26.6045C4.22934 29.1662 4.81372 31.4397 6.68695 33.313C8.56419 35.1903 10.8337 35.7707 13.3954 35.8947C15.6048 36.0188 17.7943 35.9988 19.9997 35.9988C22.2092 35.9988 24.3986 36.0188 26.604 35.8947C29.1657 35.7707 31.4392 35.1863 33.3124 33.313C35.1897 31.4357 35.7701 29.1662 35.8941 26.6045C36.0222 24.399 35.9982 22.2095 35.9982 20ZM19.9957 28.2095C15.4527 28.2095 11.7863 24.5431 11.7863 20C11.7863 15.4569 15.4527 11.7905 19.9957 11.7905C24.5387 11.7905 28.2051 15.4569 28.2051 20C28.2051 24.5431 24.5387 28.2095 19.9957 28.2095ZM28.5413 13.3715C27.4806 13.3715 26.6241 12.5149 26.6241 11.4542C26.6241 10.3935 27.4806 9.53693 28.5413 9.53693C29.602 9.53693 30.4586 10.3935 30.4586 11.4542C30.4589 11.7061 30.4095 11.9556 30.3133 12.1883C30.217 12.4211 30.0758 12.6326 29.8977 12.8107C29.7196 12.9888 29.5081 13.13 29.2754 13.2262C29.0426 13.3225 28.7932 13.3718 28.5413 13.3715Z" fill="#2B8E53"/>
</svg>
