<svg width="26" height="26" viewBox="0 0 26 26" fill="none" xmlns="http://www.w3.org/2000/svg">
<path d="M23.6804 20.1253L20.4377 23.342C19.959 23.8329 19.3245 23.9993 18.7066 24C15.974 23.9181 13.3911 22.5758 11.2703 21.1975C7.78922 18.6651 4.59517 15.5249 2.59053 11.7301C1.82168 10.1388 0.919542 8.10849 1.00573 6.33234C1.01342 5.66419 1.19347 5.00844 1.66403 4.57776L4.90676 1.33666C5.58013 0.763902 6.23132 0.961932 6.66222 1.62909L9.27101 6.57604C9.5456 7.1621 9.38808 7.79004 8.97842 8.20881L7.78372 9.40289C7.70997 9.50392 7.66301 9.61892 7.66182 9.74408C8.11994 11.5174 9.50782 13.1519 10.7339 14.2767C11.9599 15.4016 13.2778 16.9255 14.9884 17.2863C15.1999 17.3453 15.4589 17.366 15.6102 17.2254L16.9999 15.812C17.479 15.4488 18.1707 15.2714 18.6822 15.5683H18.7066L23.4122 18.3463C24.103 18.7794 24.175 19.6162 23.6804 20.1253Z" fill="#2B8E53"/>
</svg>
