<svg width="14" height="20" viewBox="0 0 14 20" fill="none" xmlns="http://www.w3.org/2000/svg">
<path d="M13.6478 5.7087C13.6184 5.62609 13.5671 5.49529 13.4937 5.3163C13.4203 5.13732 13.369 5.02029 13.3396 4.96522C12.7233 3.61594 11.8208 2.61775 10.6321 1.97065C9.4434 1.32355 8.20335 1 6.91195 1C5.23899 1 3.72746 1.5163 2.37736 2.54891C1.02725 3.58152 0.234801 5.03406 0 6.90652V7.6913L0.0440252 7.89783V8.18696C0.102725 8.62754 0.256813 9.13007 0.506289 9.69456C0.755765 10.2591 0.983229 10.7134 1.18868 11.0576C1.39413 11.4018 1.72432 11.925 2.17925 12.6272C2.63417 13.3293 2.93501 13.7906 3.08176 14.0109C3.93291 15.3601 5.23899 17.3565 7 20C7.2348 19.642 8.04193 18.3478 9.42138 16.1174C9.48008 16.0348 9.59015 15.8696 9.75157 15.6217C9.913 15.3739 10.0231 15.1812 10.0818 15.0435C10.1405 14.9609 10.2358 14.8438 10.3679 14.6924C10.5 14.5409 10.5954 14.4239 10.6541 14.3413C10.8595 13.9833 11.3071 13.3018 11.9969 12.2967C12.6866 11.2917 13.1929 10.4449 13.5157 9.75652C13.8386 9.06812 14 8.39348 14 7.73261V6.82391C14 6.52101 13.8826 6.14928 13.6478 5.7087ZM6.95597 9.79783C5.81132 9.79783 5.01887 9.27464 4.57862 8.22826C4.54927 8.09058 4.53459 7.88406 4.53459 7.6087V7.07174C4.53459 6.38333 4.78407 5.85326 5.28302 5.48152C5.78197 5.10978 6.36897 4.92391 7.04402 4.92391C7.77778 4.92391 8.38679 5.15797 8.87107 5.62609C9.35535 6.0942 9.59748 6.67246 9.59748 7.36087C9.59748 8.04927 9.34067 8.62754 8.82704 9.09565C8.31342 9.56377 7.68973 9.79783 6.95597 9.79783Z" fill="#FF574D"/>
</svg>
