<svg width="37" height="40" viewBox="0 0 37 40" fill="none" xmlns="http://www.w3.org/2000/svg">
<path d="M14.5518 2.5C15.0429 2.5 15.5139 2.69754 15.8612 3.04917C16.2084 3.40081 16.4035 3.87772 16.4035 4.375V20C16.4035 20.3315 16.5336 20.6495 16.7651 20.8839C16.9966 21.1183 17.3106 21.25 17.6381 21.25C17.9655 21.25 18.2795 21.1183 18.511 20.8839C18.7425 20.6495 18.8726 20.3315 18.8726 20V13.6675L19.0849 13.6575C19.8676 13.6275 20.6577 13.6375 21.0996 13.725C21.4305 13.7925 21.8255 13.965 22.2058 14.18C22.3959 14.285 22.5761 14.5475 22.5761 14.965V20C22.5761 20.3315 22.7062 20.6495 22.9377 20.8839C23.1692 21.1183 23.4832 21.25 23.8106 21.25C24.138 21.25 24.452 21.1183 24.6836 20.8839C24.9151 20.6495 25.0451 20.3315 25.0451 20V16.0875L25.3069 16.0625C26.0871 16.0025 26.7488 16.0375 27.0549 16.1625C27.3463 16.2775 27.7956 16.68 28.2549 17.2375C28.4549 17.4775 28.6252 17.7125 28.7487 17.885V21.25C28.7487 21.5815 28.8788 21.8995 29.1103 22.1339C29.3418 22.3683 29.6558 22.5 29.9832 22.5C30.3106 22.5 30.6246 22.3683 30.8561 22.1339C31.0877 21.8995 31.2177 21.5815 31.2177 21.25V18.75H32.0621C32.4072 18.75 32.7484 18.8232 33.0638 18.965C33.3792 19.1067 33.6618 19.3138 33.8932 19.5729C34.1247 19.8321 34.3 20.1374 34.4077 20.4693C34.5155 20.8013 34.5533 21.1524 34.5188 21.5L33.8497 28.2875C33.7633 29.1598 33.4966 30.0039 33.067 30.765L29.6227 36.87C29.5148 37.0613 29.3588 37.2203 29.1707 37.331C28.9825 37.4416 28.7688 37.4999 28.5512 37.5H12.9913C12.7623 37.5 12.5377 37.4355 12.3428 37.3136C12.1479 37.1917 11.9903 37.0174 11.8877 36.81L8.84584 30.6475L2.64364 20.185C2.48429 19.9145 2.42798 19.5944 2.48529 19.2848C2.5426 18.9752 2.70958 18.6975 2.95486 18.5038C3.20014 18.31 3.50685 18.2137 3.81734 18.2328C4.12784 18.2519 4.42076 18.3851 4.64108 18.6075L10.5914 24.6325C10.764 24.8076 10.9839 24.927 11.2234 24.9755C11.463 25.024 11.7113 24.9994 11.9371 24.9049C12.1628 24.8105 12.3558 24.6503 12.4916 24.4447C12.6274 24.2391 12.6999 23.9973 12.7 23.75V4.375C12.7 3.87772 12.8951 3.40081 13.2424 3.04917C13.5896 2.69754 14.0606 2.5 14.5518 2.5ZM18.8726 11.165V4.375C18.8726 3.21468 18.4173 2.10188 17.607 1.28141C16.7967 0.460936 15.6977 0 14.5518 0C13.4058 0 12.3068 0.460936 11.4965 1.28141C10.6862 2.10188 10.231 3.21468 10.231 4.375V20.7325L6.38668 16.84C5.73988 16.1887 4.88056 15.7988 3.97 15.7434C3.05943 15.6881 2.16021 15.9711 1.44109 16.5394C0.721975 17.1076 0.232388 17.9221 0.0642128 18.8299C-0.103963 19.7377 0.0608342 20.6765 0.527677 21.47L6.67803 31.8525L9.6779 37.9275C9.98562 38.5504 10.4586 39.0743 11.0438 39.4404C11.6291 39.8064 12.3034 40.0002 12.9913 40H28.5512C29.204 39.9998 29.8451 39.8249 30.4097 39.493C30.9742 39.161 31.4421 38.684 31.7658 38.11L35.2101 32.0075C35.8123 30.9408 36.1858 29.7576 36.3064 28.535L36.9755 21.7475C37.0441 21.0524 36.9682 20.3505 36.7525 19.6869C36.5368 19.0234 36.1862 18.413 35.7233 17.895C35.2604 17.3771 34.6955 16.9631 34.0649 16.6798C33.4343 16.3964 32.752 16.25 32.0621 16.25H30.6276C30.4735 16.0384 30.3129 15.8316 30.1462 15.63C29.6746 15.0575 28.887 14.21 27.9734 13.84C27.0747 13.475 25.8846 13.51 25.1143 13.57L24.7884 13.6C24.5255 12.9187 24.0367 12.3512 23.4057 11.995C22.8377 11.6633 22.2233 11.4205 21.5836 11.275C20.8182 11.12 19.759 11.13 18.9911 11.16L18.8726 11.165Z" fill="black"/>
</svg>
