<svg width="40" height="40" viewBox="0 0 40 40" fill="none" xmlns="http://www.w3.org/2000/svg">
<path d="M24.9113 4H15.0887C6.12493 4 4 6.12493 4 15.0887V24.9113C4 33.8751 6.12493 36 15.0887 36H24.9113C33.8751 36 36 33.8751 36 24.9113V15.0887C36 6.12493 33.8541 4 24.9113 4ZM29.8332 26.8273H27.5103C26.6303 26.8273 26.3593 26.1293 24.7763 24.5254C23.4014 23.1924 22.7924 23.0154 22.4534 23.0154C21.9744 23.0154 21.8384 23.1504 21.8384 23.8074V25.9063C21.8384 26.4693 21.6614 26.8073 20.1715 26.8073C17.7076 26.8073 14.9737 25.3173 13.0567 22.5414C10.1658 18.4735 9.37483 15.4266 9.37483 14.7967C9.37483 14.4577 9.50983 14.1407 10.1608 14.1407H12.4887C13.0777 14.1407 13.3017 14.4117 13.5307 15.0417C14.6817 18.3646 16.5986 21.2755 17.3896 21.2755C17.6816 21.2755 17.8166 21.1405 17.8166 20.3955V16.9636C17.7276 15.3806 16.8946 15.2446 16.8946 14.6827C16.8946 14.4117 17.1186 14.1407 17.4776 14.1407H21.1385C21.6334 14.1407 21.8154 14.4117 21.8154 14.9947V19.6245C21.8154 20.1245 22.0394 20.3015 22.1744 20.3015C22.4664 20.3015 22.7164 20.1245 23.2574 19.5825C24.9293 17.7076 26.1273 14.8167 26.1273 14.8167C26.2833 14.4777 26.5543 14.1607 27.1433 14.1607H29.4712C30.1692 14.1607 30.3252 14.5197 30.1692 15.0197C29.8772 16.3736 27.0283 20.3945 27.0283 20.3945C26.7833 20.8005 26.6893 20.9775 27.0283 21.4305C27.2783 21.7694 28.0912 22.4724 28.6322 23.1024C29.6272 24.2324 30.3922 25.1803 30.5962 25.8363C30.8252 26.4873 30.4872 26.8263 29.8302 26.8263L29.8332 26.8273Z" fill="#2B8E53"/>
</svg>
